<svg width="176" height="91" viewBox="0 0 176 91" fill="none" xmlns="http://www.w3.org/2000/svg">
<path d="M31.616 46.728C32.1707 46.728 32.5973 46.984 32.896 47.496C33.2373 48.008 33.408 48.712 33.408 49.608C33.408 51.3147 33.0027 52.6373 32.192 53.576C30.3573 55.8373 28.352 57.6933 26.176 59.144C24 60.5947 21.504 61.32 18.688 61.32C9.984 61.32 5.632 55.1973 5.632 42.952C5.632 41.0747 5.696 39.176 5.824 37.256H3.328C2.048 37.256 1.17333 37.0213 0.704 36.552C0.277333 36.0827 0.064 35.336 0.064 34.312C0.064 31.9227 1.024 30.728 2.944 30.728H6.592C7.31733 26.0347 8.42667 21.7467 9.92 17.864C11.4133 13.9813 13.2053 10.888 15.296 8.584C17.4293 6.28 19.712 5.128 22.144 5.128C23.936 5.128 25.344 5.91733 26.368 7.496C27.392 9.07467 27.904 11.0587 27.904 13.448C27.904 20.0613 25.1307 25.8213 19.584 30.728H26.752C27.4347 30.728 27.9253 30.8773 28.224 31.176C28.5227 31.4747 28.672 32.0293 28.672 32.84C28.672 35.784 26.2613 37.256 21.44 37.256H13.632C13.5467 39.3893 13.504 41.0533 13.504 42.248C13.504 46.6853 14.016 49.8 15.04 51.592C16.1067 53.384 17.7707 54.28 20.032 54.28C21.8667 54.28 23.488 53.7253 24.896 52.616C26.304 51.5067 27.968 49.8427 29.888 47.624C30.4 47.0267 30.976 46.728 31.616 46.728ZM20.416 11.272C19.776 11.272 19.0507 12.0827 18.24 13.704C17.472 15.2827 16.7253 17.5013 16 20.36C15.3173 23.176 14.7413 26.312 14.272 29.768C16.7893 27.592 18.6667 25.16 19.904 22.472C21.184 19.7413 21.824 17.2667 21.824 15.048C21.824 12.5307 21.3547 11.272 20.416 11.272ZM36.069 61.32C33.4237 61.32 31.3117 60.36 29.733 58.44C28.1543 56.52 27.365 54.0027 27.365 50.888C27.365 47.4747 28.1543 44.2533 29.733 41.224C31.3117 38.152 33.4023 35.6987 36.005 33.864C38.6503 31.9867 41.445 31.048 44.389 31.048C45.3277 31.048 45.9463 31.24 46.245 31.624C46.5863 31.9653 46.8637 32.6053 47.077 33.544C47.973 33.3733 48.9117 33.288 49.893 33.288C51.9837 33.288 53.029 34.0347 53.029 35.528C53.029 36.424 52.709 38.5573 52.069 41.928C51.0877 46.8347 50.597 50.248 50.597 52.168C50.597 52.808 50.7463 53.32 51.045 53.704C51.3863 54.088 51.813 54.28 52.325 54.28C53.1357 54.28 54.117 53.768 55.269 52.744C56.421 51.6773 57.9783 49.9707 59.941 47.624C60.453 47.0267 61.029 46.728 61.669 46.728C62.2237 46.728 62.6503 46.984 62.949 47.496C63.2903 48.008 63.461 48.712 63.461 49.608C63.461 51.3147 63.0557 52.6373 62.245 53.576C60.4957 55.752 58.6397 57.5867 56.677 59.08C54.7143 60.5733 52.8157 61.32 50.981 61.32C49.573 61.32 48.2717 60.8507 47.077 59.912C45.925 58.9307 45.0503 57.608 44.453 55.944C42.2343 59.528 39.4397 61.32 36.069 61.32ZM38.373 54.856C39.3117 54.856 40.2077 54.3013 41.061 53.192C41.9143 52.0827 42.533 50.6107 42.917 48.776L45.285 37C43.493 37.0427 41.829 37.7253 40.293 39.048C38.7997 40.328 37.605 42.0347 36.709 44.168C35.813 46.3013 35.365 48.5627 35.365 50.952C35.365 52.2747 35.621 53.256 36.133 53.896C36.6877 54.536 37.4343 54.856 38.373 54.856ZM82.5155 46.728C83.0702 46.728 83.4968 46.984 83.7955 47.496C84.1368 48.008 84.3075 48.712 84.3075 49.608C84.3075 51.3147 83.9022 52.6373 83.0915 53.576C81.2568 55.8373 79.2515 57.6933 77.0755 59.144C74.9422 60.5947 72.5102 61.32 69.7795 61.32C66.0248 61.32 63.2302 59.6133 61.3955 56.2C59.6035 52.7867 58.7075 48.3707 58.7075 42.952C58.7075 37.7467 59.3688 31.816 60.6915 25.16C62.0568 18.504 64.0408 12.7867 66.6435 8.008C69.2888 3.22933 72.4248 0.839996 76.0515 0.839996C78.0995 0.839996 79.6995 1.8 80.8515 3.72C82.0462 5.59733 82.6435 8.30667 82.6435 11.848C82.6435 16.9253 81.2355 22.8133 78.4195 29.512C75.6035 36.2107 71.7848 42.8453 66.9635 49.416C67.2622 51.1653 67.7528 52.424 68.4355 53.192C69.1182 53.9173 70.0142 54.28 71.1235 54.28C72.8728 54.28 74.4088 53.7893 75.7315 52.808C77.0542 51.784 78.7395 50.056 80.7875 47.624C81.2995 47.0267 81.8755 46.728 82.5155 46.728ZM74.6435 7.176C73.6622 7.176 72.5528 8.94667 71.3155 12.488C70.0782 16.0293 68.9902 20.424 68.0515 25.672C67.1128 30.92 66.6008 35.9547 66.5155 40.776C69.5448 35.784 71.9555 30.792 73.7475 25.8C75.5395 20.7653 76.4355 16.1787 76.4355 12.04C76.4355 8.79733 75.8382 7.176 74.6435 7.176ZM116.127 46.728C116.681 46.728 117.108 46.984 117.407 47.496C117.748 48.008 117.919 48.712 117.919 49.608C117.919 51.3147 117.513 52.6373 116.703 53.576C114.783 55.9227 112.841 57.8 110.879 59.208C108.916 60.616 106.591 61.32 103.903 61.32C100.617 61.32 97.9718 60.3813 95.9665 58.504C93.9612 56.6267 92.9585 54.1307 92.9585 51.016C92.9585 49.352 93.8118 48.1573 95.5185 47.432C97.3958 46.6213 98.7398 45.768 99.5505 44.872C100.361 43.9333 100.767 42.8027 100.767 41.48C100.767 40.712 100.596 40.136 100.255 39.752C99.9558 39.368 99.5718 39.176 99.1025 39.176C97.9505 39.176 96.6705 40.008 95.2625 41.672C93.8972 43.336 92.6172 45.4907 91.4225 48.136C90.2278 50.7387 89.2892 53.4267 88.6065 56.2C88.1372 58.2053 87.5825 59.5707 86.9425 60.296C86.3452 60.9787 85.3852 61.32 84.0625 61.32C82.7398 61.32 81.7585 60.8507 81.1185 59.912C80.5212 58.9307 80.1158 57.4373 79.9025 55.432C79.6892 53.4267 79.5825 50.4827 79.5825 46.6C79.5825 40.0293 80.2438 33.1813 81.5665 26.056C82.9318 18.9307 84.9158 12.9573 87.5185 8.136C90.1638 3.272 93.3212 0.839996 96.9905 0.839996C98.9532 0.839996 100.532 1.69333 101.727 3.4C102.964 5.064 103.583 7.24 103.583 9.928C103.583 14.2373 102.324 18.7173 99.8065 23.368C97.2892 27.976 93.1932 33.3733 87.5185 39.56C87.3905 41.7787 87.3265 44.0613 87.3265 46.408C89.3745 41.0747 91.7212 37.2133 94.3665 34.824C97.0118 32.392 99.4865 31.176 101.791 31.176C103.924 31.176 105.631 31.9013 106.911 33.352C108.233 34.8027 108.895 36.5947 108.895 38.728C108.895 41.0747 108.297 43.2293 107.103 45.192C105.908 47.1547 103.86 48.904 100.959 50.44C101.129 51.592 101.641 52.5307 102.495 53.256C103.391 53.9387 104.457 54.28 105.695 54.28C107.017 54.28 108.297 53.768 109.535 52.744C110.772 51.72 112.393 50.0133 114.399 47.624C114.911 47.0267 115.487 46.728 116.127 46.728ZM95.6465 7.176C94.8785 7.176 94.0252 8.28533 93.0865 10.504C92.1478 12.68 91.2305 15.6453 90.3345 19.4C89.4812 23.112 88.7772 27.1653 88.2225 31.56C90.8678 28.4453 93.0438 25.0533 94.7505 21.384C96.4998 17.7147 97.3745 14.3867 97.3745 11.4C97.3745 10.0347 97.2252 8.98933 96.9265 8.264C96.6278 7.53866 96.2012 7.176 95.6465 7.176ZM121.144 26.952C119.352 26.952 118.008 26.5467 117.112 25.736C116.216 24.8827 115.768 23.7093 115.768 22.216C115.768 20.7227 116.344 19.4853 117.496 18.504C118.69 17.48 120.162 16.968 121.912 16.968C123.49 16.968 124.77 17.352 125.752 18.12C126.733 18.888 127.224 19.976 127.224 21.384C127.224 23.0907 126.669 24.456 125.56 25.48C124.45 26.4613 122.978 26.952 121.144 26.952ZM120.632 61.32C117.858 61.32 115.832 60.3387 114.552 58.376C113.314 56.4133 112.696 53.8107 112.696 50.568C112.696 48.648 112.93 46.1947 113.4 43.208C113.912 40.1787 114.552 37.3627 115.32 34.76C115.704 33.3947 116.216 32.456 116.856 31.944C117.496 31.432 118.52 31.176 119.928 31.176C122.104 31.176 123.192 31.9013 123.192 33.352C123.192 34.4187 122.786 36.8933 121.976 40.776C120.952 45.4693 120.44 48.648 120.44 50.312C120.44 51.592 120.61 52.5733 120.952 53.256C121.293 53.9387 121.869 54.28 122.68 54.28C123.448 54.28 124.408 53.7467 125.56 52.68C126.712 51.6133 128.248 49.928 130.168 47.624C130.68 47.0267 131.256 46.728 131.896 46.728C132.45 46.728 132.877 46.984 133.176 47.496C133.517 48.008 133.688 48.712 133.688 49.608C133.688 51.3147 133.282 52.6373 132.472 53.576C128.248 58.7387 124.301 61.32 120.632 61.32ZM153.421 43.08C154.615 43.08 155.213 43.976 155.213 45.768C155.213 49.1387 152.567 50.824 147.277 50.824C146.253 50.824 144.781 50.632 142.861 50.248C143.415 52.8933 143.863 55.8373 144.205 59.08C144.589 62.28 144.781 64.9253 144.781 67.016C144.781 71.624 144.034 75.144 142.541 77.576C141.047 80.008 139.085 81.224 136.653 81.224C133.581 81.224 131.383 79.048 130.061 74.696C128.781 70.344 128.141 63.7733 128.141 54.984C128.141 46.792 129.015 38.4933 130.765 30.088C132.557 21.64 134.989 14.664 138.061 9.16C141.175 3.61333 144.589 0.839996 148.301 0.839996C150.306 0.839996 151.863 1.736 152.973 3.528C154.125 5.32 154.701 7.73066 154.701 10.76C154.701 20.7867 148.706 31.7093 136.717 43.528C136.29 47.7093 136.077 51.3787 136.077 54.536C136.077 58.9307 136.226 63.432 136.525 68.04C136.823 72.6907 137.314 75.016 137.997 75.016C139.277 75.016 139.917 72.7973 139.917 68.36C139.917 65.032 139.682 61.8107 139.213 58.696C138.786 55.5813 138.189 52.296 137.421 48.84C137.378 48.2853 137.549 47.5813 137.933 46.728C138.359 45.8747 138.871 45.128 139.469 44.488C140.066 43.848 140.599 43.528 141.069 43.528C141.922 43.528 142.946 43.5707 144.141 43.656C144.525 43.6987 144.973 43.72 145.485 43.72C147.191 43.72 149.09 43.5707 151.181 43.272C151.522 43.2293 151.885 43.1867 152.269 43.144C152.653 43.1013 153.037 43.08 153.421 43.08ZM146.957 7.176C146.189 7.176 145.229 8.47733 144.077 11.08C142.967 13.6827 141.858 17.1387 140.749 21.448C139.639 25.7147 138.679 30.2373 137.869 35.016C141.282 31.1333 143.906 27.1013 145.741 22.92C147.575 18.696 148.514 14.7493 148.557 11.08C148.557 8.47733 148.023 7.176 146.957 7.176ZM172.785 31.176C173.766 31.176 174.449 31.304 174.833 31.56C175.217 31.816 175.409 32.2427 175.409 32.84C175.409 33.864 174.854 37.512 173.745 43.784C172.763 49.8 172.187 53.3627 172.017 54.472C170.438 65.4373 168.262 74.12 165.489 80.52C162.715 86.92 159.025 90.12 154.417 90.12C152.241 90.12 150.47 89.4373 149.105 88.072C147.739 86.7493 147.056 85 147.056 82.824C147.056 80.8187 147.505 78.7707 148.401 76.68C149.339 74.5893 151.046 72.1787 153.521 69.448C156.038 66.76 159.579 63.6667 164.145 60.168L164.337 58.696C164.635 57.1173 164.977 54.856 165.361 51.912C164.507 54.984 163.313 57.3307 161.777 58.952C160.241 60.5307 158.619 61.32 156.913 61.32C154.993 61.32 153.414 60.4453 152.177 58.696C150.982 56.904 150.385 54.6853 150.385 52.04C150.385 48.84 150.598 45.9173 151.025 43.272C151.451 40.584 152.155 37.7467 153.137 34.76C153.563 33.48 154.161 32.5627 154.929 32.008C155.697 31.4533 156.913 31.176 158.577 31.176C159.515 31.176 160.155 31.3253 160.497 31.624C160.881 31.9227 161.073 32.3707 161.073 32.968C161.073 33.3093 160.838 34.4613 160.369 36.424C159.942 38.0027 159.601 39.432 159.345 40.712C159.003 42.4613 158.705 44.1467 158.449 45.768C158.193 47.3467 158.065 48.648 158.065 49.672C158.065 51.2933 158.513 52.104 159.409 52.104C160.049 52.104 160.838 51.464 161.777 50.184C162.758 48.904 163.782 46.9627 164.849 44.36C165.958 41.7573 167.025 38.5573 168.049 34.76C168.39 33.48 168.902 32.5627 169.585 32.008C170.31 31.4533 171.377 31.176 172.785 31.176ZM155.121 83.912C156.187 83.912 157.382 82.6747 158.705 80.2C160.027 77.7253 161.35 73.608 162.673 67.848C159.387 70.6213 156.998 73.1387 155.505 75.4C154.054 77.704 153.329 79.7093 153.329 81.416C153.329 82.1413 153.457 82.7387 153.713 83.208C154.011 83.6773 154.481 83.912 155.121 83.912Z" fill="black"/>
</svg>
